<?xml version="1.0" encoding="utf-8"?>
<!-- Generator: Adobe Illustrator 15.1.0, SVG Export Plug-In . SVG Version: 6.00 Build 0)  -->
<!DOCTYPE svg PUBLIC "-//W3C//DTD SVG 1.1//EN" "http://www.w3.org/Graphics/SVG/1.1/DTD/svg11.dtd">
<svg version="1.1" id="Layer_1" xmlns="http://www.w3.org/2000/svg" xmlns:xlink="http://www.w3.org/1999/xlink" x="0px" y="0px"
	 width="873px" height="225px" viewBox="0 0 873 225" enable-background="new 0 0 873 225" xml:space="preserve">
<g>
	<path fill="#781D7E" d="M123.288,105.246c-0.267-2.986-1.198-5.203-2.784-6.668c-1.594-1.587-3.618-3.012-6.07-4.273
		c-2.452-1.255-5.14-2.388-8.053-3.383c-2.922-0.996-5.9-1.789-8.951-2.389c-3.051-0.59-6.113-2.248-8.353-1.092
		c-2.614,1.35-4.376,7.877-4.902,8.541c-1.991,4.24-6.241,11.352-8.758,15.326c-2.525,3.982-5.31,7.656-8.36,11.04
		c-3.051,3.383-6.329,6.401-9.842,9.049c-3.512,2.653-7.195,4.773-11.039,6.369c-0.534,0-1.756,0.233-3.683,0.694
		c-1.918,0.47-4.079,0.601-6.458,0.396c-2.388-0.192-4.848-0.922-7.365-2.185s-4.71-3.479-6.563-6.669
		c-1.854-3.182-3.213-7.551-4.079-13.127c-0.858-5.568-0.826-12.86,0.105-21.877c-0.268,0-0.105-1.724,0.493-5.172
		c0.599-3.447,1.425-7.525,2.485-12.229c1.06-4.71,2.291-9.484,3.683-14.324s2.816-8.781,4.273-11.833
		c4.379-8.353,9.121-14.948,14.228-19.788c5.099-4.84,9.971-8.522,14.617-11.04c4.637-2.517,8.651-4.176,12.035-4.977
		c3.383-0.793,5.601-1.392,6.661-1.789c0.793-0.793,0.793-1.521,0-2.186c-0.793-0.664-1.886-1.262-3.278-1.789
		c-1.392-0.534-2.824-0.931-4.281-1.198c-1.457-0.267-2.452-0.396-2.978-0.396c-6.904,1.724-13.532,4.969-19.894,9.744
		C39.807,22.8,34.108,28.87,29.066,36.227c-5.034,7.357-9.218,15.814-12.528,25.356c-3.318,9.55-5.366,19.958-6.167,31.232
		c-0.931,5.835-1.157,11.702-0.696,17.603c0.461,5.9,1.158,11.234,2.088,16.009c2.914,9.017,6.863,15.15,11.84,18.396
		c4.969,3.254,10.303,4.347,16.009,3.286c3.974-1.198,8.385-3.245,13.224-6.168c4.84-2.914,9.615-6.629,14.325-11.137
		c4.702-4.508,9.081-9.744,13.127-15.717c2.577-3.807,5.603-9.104,8.044-14.335c-0.279,2.492-0.497,5.275-0.648,8.37
		c-0.267,5.439-0.202,11.671,0.194,18.695c0.138,1.595,0.501,3.479,1.101,5.674c0.591,2.186,1.489,4.273,2.679,6.264
		c1.197,1.983,2.784,3.676,4.775,5.066c1.991,1.393,4.443,2.088,7.365,2.088c1.716,0,3.577-0.986,5.568-2.979
		c1.982-1.99,3.844-4.508,5.568-7.56c1.716-3.052,3.278-6.467,4.67-10.246c1.392-3.778,2.42-7.453,3.083-11.039
		C123.353,111.511,123.555,108.225,123.288,105.246z M117.023,115.59c-0.47,3.115-1.498,6.434-3.084,9.947
		c-1.594,3.512-3.981,6.928-7.162,10.236c-1.19,1.199-2.323,1.928-3.383,2.193s-2.088,0.227-3.083-0.104
		c-0.987-0.324-1.821-0.795-2.484-1.394c-0.664-0.6-1.19-1.157-1.586-1.69c-0.534-0.924-1.028-2.68-1.498-5.271
		c-0.461-2.581-0.728-5.633-0.793-9.146c-0.064-3.512,0.162-7.396,0.696-11.638c0.526-4.24,1.457-8.481,2.784-12.73
		c2.784,0.793,5.042,1.424,6.766,1.886c1.716,0.47,3.148,0.898,4.273,1.295c1.125,0.397,2.056,0.833,2.784,1.295
		c0.729,0.47,1.626,1.028,2.687,1.691c1.319,1.06,2.291,2.784,2.881,5.171C117.42,109.723,117.484,112.475,117.023,115.59z"/>
	<path fill="#781D7E" d="M139.992,138.364c0.931,0.663,2.452-0.47,4.581-3.384c2.112-2.912,4.176-6.66,6.159-11.24
		c1.991-4.573,3.65-9.445,4.977-14.617c1.319-5.172,1.724-9.68,1.19-13.523c0-0.793,0.332-1.295,0.996-1.498
		c0.664-0.193,1.424-0.291,2.29-0.291c0.858,0,1.716,0.064,2.582,0.194c0.866,0.138,1.497,0.267,1.894,0.396
		c-0.267,2.922-0.631,6.604-1.092,11.04c-0.469,4.443-0.769,8.854-0.898,13.232c-0.138,4.37,0.033,8.353,0.494,11.931
		c0.47,3.584,1.562,5.898,3.286,6.959c1.457,0.932,3.148,0.867,5.074-0.193c1.918-1.061,3.78-2.389,5.568-3.982
		c1.789-1.586,3.407-3.01,4.872-4.272c1.457-1.263,2.388-1.691,2.784-1.296c-0.534,2.259-1.659,4.443-3.383,6.564
		c-1.724,2.12-3.683,3.917-5.868,5.373c-2.185,1.457-4.508,2.485-6.96,3.084c-2.452,0.592-4.678,0.494-6.661-0.299
		c-0.801-0.13-1.433-0.898-1.894-2.291s-0.866-3.011-1.189-4.872c-0.332-1.854-0.599-3.845-0.801-5.965
		c-0.194-2.12-0.429-4.046-0.696-5.771c-1.06,2.121-2.25,4.508-3.577,7.162c-1.327,2.654-2.655,5.172-3.974,7.56
		c-1.328,2.388-2.59,4.442-3.78,6.167c-1.198,1.725-2.193,2.711-2.986,2.979c-2.655,1.062-4.71,1.295-6.167,0.695
		c-1.457-0.598-2.452-1.424-2.986-2.484c-0.793-0.396-1.36-1.756-1.684-4.078c-0.34-2.313-0.599-5.27-0.801-8.846
		c-0.194-3.586-0.299-7.625-0.299-12.141c0-4.5,0-9.113,0-13.823c0-4.702-0.065-9.349-0.194-13.921
		c-0.138-4.572-0.332-8.781-0.599-12.633c0.923,0,1.854,0.072,2.784,0.201c0.793,0.139,1.594,0.301,2.388,0.494
		c0.793,0.203,1.457,0.631,1.991,1.295c0.664,3.051,0.761,8.426,0.3,16.113c-0.47,7.689-0.834,16.974-1.101,27.851
		c0,0.396,0.033,1.156,0.105,2.281c0.065,1.135,0.194,2.355,0.396,3.684c0.203,1.326,0.526,2.582,0.996,3.779
		C138.567,137.166,139.199,137.968,139.992,138.364z"/>
	<path fill="#781D7E" d="M179.964,84.261c-0.138-1.19,0.494-1.489,1.886-0.898c1.392,0.599,2.816,1.229,4.273,1.894
		c0.534,3.051,0.931,5.471,1.198,7.26c0.267,1.789,0.461,3.48,0.599,5.074c0.129,1.587,0.259,3.311,0.397,5.172
		c0.129,1.854,0.323,4.306,0.591,7.357c1.198-3.052,2.654-5.868,4.378-8.458c1.724-2.581,3.941-4.8,6.661-6.661
		c2.719-1.854,5.973-3.213,9.752-4.078c3.78-0.858,8.32-1.158,13.621-0.891c0,1.061-0.364,1.959-1.093,2.679
		c-0.729,0.737-2.42,1.295-5.075,1.691c-3.844,0.672-7.195,1.959-10.043,3.885c-2.849,1.919-5.301,4.144-7.357,6.661
		c-2.056,2.517-3.715,5.203-4.978,8.053c-1.254,2.856-2.282,5.472-3.075,7.858c-0.138,1.189-0.299,2.882-0.502,5.074
		c-0.194,2.186-0.332,4.508-0.396,6.959c-0.073,2.453-0.138,4.84-0.202,7.164c-0.065,2.314,0.032,4.144,0.299,5.463
		c0.129,0.672-0.17,1.164-0.89,1.496c-0.736,0.324-1.562,0.56-2.493,0.696c-0.922,0.13-1.788,0.065-2.582-0.202
		c-0.793-0.268-1.198-0.729-1.198-1.393c0.267-13.652-0.097-25.42-1.093-35.303C181.647,100.941,180.757,92.087,179.964,84.261z"/>
	<path fill="#781D7E" d="M247.442,88.217c5.63-0.96,11.16-1.944,16.591-2.949c5.43-1.013,11.091-2.074,16.973-3.198
		c1.334,0.005,2.257,0.612,2.784,1.821c0.521,1.216,0.063,2.025-1.359,2.437c-4.827,1.019-10.367,2.304-16.606,3.854
		c-6.236,1.558-12.126,3.35-17.65,5.365c0.665,4.065,1.221,8.239,1.648,12.523c0.429,4.293,0.945,8.503,1.562,12.638
		c0.607,4.138,1.403,8.123,2.388,11.955c0.985,3.836,2.294,7.334,3.944,10.505c2.075,2.055,4.052,3.189,5.943,3.398
		c1.883,0.211,3.62-0.061,5.213-0.819c1.584-0.753,3.014-1.83,4.274-3.226c1.26-1.387,2.354-2.731,3.299-4.021
		c0.825-1.018,1.59-1.094,2.271-0.227c0.688,0.857,0.263,2.3-1.268,4.324c-0.697,0.995-1.59,2.084-2.668,3.258
		c-1.087,1.174-2.415,2.211-3.994,3.1c-1.578,0.891-3.376,1.541-5.402,1.938c-2.025,0.405-4.255,0.393-6.697-0.031
		c-3.114-0.485-5.604-2.711-7.463-6.647c-1.858-3.946-3.423-8.622-4.694-14.026c-1.271-5.402-2.34-11.062-3.189-16.973
		c-0.858-5.908-1.723-11.223-2.591-15.928c-5.754,1.104-9.968,1.987-12.625,2.659c-2.667,0.665-4.589,1.125-5.76,1.372
		c-1.179,0.248-1.975,0.263-2.396,0.037c-0.428-0.219-1.212-0.742-2.36-1.563c0.063-0.673,0.041-1.306-0.083-1.886
		c-0.131-0.589-0.182-1.089-0.148-1.49c0.025-0.401,0.244-0.821,0.671-1.263c0.42-0.439,1.281-0.859,2.575-1.258
		c1.921-0.72,4.767-1.306,8.52-1.753c3.754-0.439,7.381-1.103,10.897-1.982c-0.559-4.206-1.018-7.494-1.384-9.858
		c-0.373-2.361-0.708-4.427-1.023-6.192c-0.307-1.767-0.578-3.505-0.813-5.213c-0.244-1.709-0.5-3.953-0.777-6.724
		c-0.065-0.659,0.248-1.187,0.939-1.59c0.692-0.402,1.502-0.687,2.422-0.843c0.911-0.157,1.786-0.114,2.608,0.138
		c0.821,0.252,1.403,0.696,1.733,1.323c0.515,1.152,0.946,2.874,1.313,5.173c0.359,2.298,0.7,4.729,1.028,7.29
		c0.321,2.569,0.614,5.169,0.878,7.811C247.229,84.114,247.387,86.36,247.442,88.217z"/>
	<path fill="#781D7E" d="M286.586,86.445c0,3.715-0.032,7.43-0.098,11.145c-0.072,3.707-0.137,7.293-0.202,10.74
		c-0.064,3.447-0.129,6.693-0.194,9.744c-0.072,3.051-0.17,5.771-0.299,8.158c0-0.534,0.299-1.83,0.891-3.885
		c0.599-2.057,1.424-4.402,2.492-7.058c1.061-2.655,2.218-5.472,3.48-8.458c1.254-2.979,2.613-5.634,4.07-7.956
		c1.465-2.314,2.954-4.144,4.476-5.471c1.53-1.319,2.954-1.716,4.281-1.189c2.914,1.326,4.97,3.253,6.167,5.77
		c1.19,2.518,2.048,5.406,2.582,8.652c0.526,3.246,1.061,6.863,1.595,10.836c0.526,3.981,1.716,8.158,3.577,12.528
		c0.793,1.991,1.959,3.456,3.48,4.379c1.521,0.931,2.986,1.595,4.378,1.99c1.393,0.396,2.518,0.632,3.383,0.696
		c0.858,0.064,1.157,0.3,0.891,0.695c-3.311,2.518-6.167,3.383-8.555,2.582c-2.38-0.793-4.402-2.55-6.062-5.27
		c-1.659-2.711-3.02-5.965-4.079-9.744c-1.061-3.779-2.023-7.422-2.882-10.941c-0.865-3.514-1.626-6.491-2.29-8.951
		c-0.663-2.453-1.392-3.675-2.186-3.675c-1.197,0.13-2.484,1.263-3.876,3.375c-1.393,2.128-2.825,4.774-4.281,7.963
		c-1.457,3.181-2.85,6.66-4.177,10.439c-1.327,3.78-2.558,7.325-3.683,10.643c-1.125,3.312-2.023,6.16-2.679,8.547
		c-0.672,2.389-1.068,3.854-1.197,4.379c-1.991,0-3.214,0.064-3.675,0.203c-0.47,0.129-1.23-0.535-2.29-1.991
		c0.663-11.671,0.898-22.71,0.696-33.117c-0.203-10.408-0.502-19.457-0.898-27.153c0-1.189,0.299-1.788,0.898-1.788
		c0.599,0,1.254,0.267,1.99,0.793c0.729,0.533,1.489,1.068,2.282,1.594C285.396,86.188,286.052,86.445,286.586,86.445z"/>
	<path fill="#781D7E" d="M344.65,90.824c0.396-0.129,1.521-0.494,3.383-1.092c1.854-0.6,3.375-0.697,4.572-0.301
		c3.845-0.129,6.79,0.867,8.854,2.986c2.047,2.121,2.218,6.232,0.493,12.326c-2.517,6.767-5.867,12.399-10.044,16.907
		c-4.176,4.509-9.121,8.82-14.818,12.934c1.327,3.448,3.31,5.366,5.965,5.764c2.654,0.403,5.438-0.025,8.353-1.287
		c2.921-1.264,5.771-2.955,8.555-5.074c2.783-2.121,5.042-3.982,6.766-5.568c2.784-2.389,5.002-4.411,6.66-6.07
		c1.66-1.649,3.416-3.674,5.27-6.062c0.396-0.267,0.631-0.234,0.695,0.098c0.065,0.332,0.033,0.834-0.097,1.489
		c-0.13,0.672-0.332,1.595-0.599,2.784c-0.396,0.931-0.793,1.764-1.19,2.491c-0.396,0.729-0.963,1.521-1.691,2.39
		c-0.728,0.856-1.691,1.885-2.881,3.073c-1.198,1.199-2.654,2.785-4.379,4.775c-1.99,1.861-3.909,3.684-5.771,5.471
		c-1.854,1.789-3.812,3.353-5.867,4.68c-2.055,1.326-4.306,2.25-6.758,2.783c-2.461,0.525-5.277,0.525-8.458,0
		c-2.654-0.932-4.774-1.926-6.361-2.985c-1.594-1.062-2.824-2.153-3.683-3.278c-0.865-1.125-1.488-2.16-1.885-3.082
		c-0.405-0.933-0.672-1.726-0.802-2.389c-0.663-2.654-0.923-6.23-0.793-10.74c0.13-4.508,1.457-10.343,3.981-17.505
		c1.716-3.715,3.578-6.863,5.568-9.445C339.673,94.305,341.995,92.281,344.65,90.824z M335.893,126.029
		c1.725-0.922,3.748-2.217,6.07-3.877c2.322-1.658,4.508-3.584,6.563-5.771c2.055-2.187,3.845-4.605,5.374-7.26
		c1.521-2.654,2.348-5.438,2.484-8.352c0.396-1.991,0.332-3.383-0.202-4.177c-0.267-0.396-0.526-0.599-0.793-0.599
		c-2.258-1.061-4.508-0.729-6.766,0.995c-2.25,1.724-4.306,4.177-6.159,7.356c-1.861,3.182-3.424,6.734-4.678,10.643
		C336.524,118.9,335.893,122.582,335.893,126.029z"/>
	<path fill="#781D7E" d="M391.591,133.193c3.043,1.455,6.531-0.826,10.44-6.863c3.909-6.038,7.058-15.814,9.444-29.339
		c0-0.13,0.43-0.13,1.296,0c0.856,0.13,1.756,0.332,2.687,0.599c0.923,0.268,1.789,0.592,2.582,0.988
		c0.801,0.404,1.197,0.736,1.197,0.995c0,1.991-0.139,4.378-0.396,7.163c-0.267,2.783-0.565,5.834-0.897,9.153
		c-0.331,3.311-0.566,6.832-0.695,10.537c-0.13,3.715-0.13,7.43,0,11.137c3.577-3.043,7.389-5.365,11.436-6.959
		c4.048-1.588,7.924-2.582,11.639-2.979c1.318,0.663,2.016,1.092,2.089,1.286c0.063,0.201-0.235,0.566-0.898,1.093
		c-5.034,1.465-9.444,3.456-13.225,5.974c-3.779,2.518-7.39,5.301-10.837,8.353c0,4.241,0.063,8.813,0.193,13.726
		c0.13,4.905,0.202,9.811,0.202,14.715s-0.031,9.752-0.098,14.52c-0.072,4.775-0.34,9.081-0.801,12.934
		c-0.461,3.846-1.125,7.122-1.991,9.842c-0.857,2.72-2.023,4.541-3.479,5.471c-1.061,0.664-2.281,1.094-3.675,1.295
		c-1.392,0.195-2.784,0.229-4.176,0.098c-1.393-0.129-2.72-0.429-3.982-0.891c-1.263-0.469-2.289-1.1-3.082-1.893
		c-2.519-2.519-4.307-5.738-5.367-9.648c-1.068-3.908-1.595-8.189-1.595-12.827c0-4.646,0.526-9.413,1.595-14.317
		c1.061-4.912,2.484-9.623,4.273-14.123c1.788-4.516,3.981-8.586,6.563-12.235c2.59-3.65,5.397-6.459,8.449-8.449
		c0.404-7.163,0.6-14.188,0.6-21.084c-1.328,3.448-3.246,7.153-5.763,11.138c-2.525,3.975-5.643,7.098-9.356,9.348
		c-4.111,1.861-7.591,1.658-10.439-0.6c-2.85-2.25-4.605-5.697-5.27-10.343c-0.663-5.433-1.197-9.938-1.594-13.524
		c-0.396-3.576-0.729-6.959-0.996-10.142c-0.267-3.18-0.493-6.498-0.695-9.945c-0.194-3.448-0.494-7.754-0.891-12.926
		c0.664-0.404,1.659-0.502,2.979-0.299c1.327,0.193,2.322,0.631,2.986,1.286c0.396,0,0.664,1.068,0.793,3.188
		c0.138,2.121,0.268,4.84,0.404,8.15c0.13,3.318,0.324,6.936,0.591,10.846c0.268,3.908,0.696,7.623,1.295,11.137
		c0.6,3.513,1.393,6.597,2.388,9.25C388.508,130.676,389.867,132.393,391.591,133.193z M411.881,149.896
		c-0.801,0.924-1.627,1.821-2.492,2.688c-0.857,0.857-1.691,1.82-2.484,2.881c-1.725,2.121-3.383,4.979-4.97,8.555
		c-1.595,3.578-2.953,7.486-4.078,11.736c-1.125,4.24-1.896,8.514-2.292,12.827c-0.396,4.306-0.299,8.158,0.3,11.542
		c0.599,3.374,1.82,6.029,3.683,7.955c1.854,1.918,4.443,2.679,7.753,2.281c1.327-0.267,2.389-1.787,3.182-4.572
		c0.802-2.783,1.359-6.199,1.69-10.246c0.332-4.046,0.534-8.48,0.601-13.32c0.063-4.849,0.031-9.486-0.099-13.93
		c-0.138-4.443-0.299-8.318-0.502-11.63C411.979,153.346,411.881,151.096,411.881,149.896z"/>
	<path fill="#781D7E" d="M525.706,6.687c0.664-0.259,1.95-0.494,3.877-0.696c1.918-0.194,3.609,0.041,5.074,0.696
		c0.13,0.534,0.259,2.161,0.396,4.872c0.13,2.719,0.3,6.07,0.494,10.052c0.202,3.974,0.404,8.288,0.6,12.925
		c0.201,4.646,0.429,9.121,0.695,13.428c0.268,4.305,0.502,8.149,0.696,11.532c0.202,3.383,0.429,5.803,0.695,7.26
		c3.317-0.655,6.038-1.19,8.157-1.587c2.121-0.396,3.909-0.695,5.366-0.898c1.456-0.193,2.784-0.363,3.981-0.493
		c1.188-0.13,2.646-0.396,4.379-0.802c2.25-0.129,4.006-0.193,5.269-0.193c1.255,0,2.187,0.17,2.784,0.494
		c0.6,0.331,0.923,0.768,0.995,1.295c0.065,0.533,0.098,1.188,0.098,1.99c-1.99,0.396-4.272,0.963-6.862,1.691
		c-2.582,0.729-5.236,1.489-7.956,2.283c-2.72,0.801-5.438,1.626-8.149,2.484c-2.72,0.865-5.276,1.562-7.665,2.088
		c0.13,1.068,0.332,3.318,0.601,6.766c0.267,3.447,0.599,7.494,0.994,12.132c0.396,4.646,0.825,9.614,1.296,14.916
		c0.461,5.311,0.954,10.448,1.488,15.418c0.526,4.971,1.062,9.518,1.596,13.629c0.524,4.111,1.06,7.154,1.586,9.146
		c0.533,1.457,0.824,2.783,0.897,3.982c0.064,1.188,0.43,3.043,1.093,5.566c-1.327,0.525-2.815,0.955-4.476,1.287
		c-1.659,0.331-3.084,0.234-4.273-0.292c-0.672-1.595-1.166-3.06-1.496-4.378c-0.332-1.327-0.633-2.784-0.892-4.379
		c-0.268-1.586-0.502-3.383-0.696-5.365c-0.201-1.991-0.501-4.51-0.897-7.561c-0.129-1.457-0.299-3.746-0.493-6.863
		c-0.202-3.114-0.47-6.659-0.802-10.643c-0.331-3.974-0.663-8.158-0.987-12.528c-0.34-4.378-0.631-8.522-0.897-12.431
		c-0.268-3.91-0.47-7.365-0.6-10.344c-0.13-2.986-0.193-5.074-0.193-6.264c-2.389,0.525-4.477,0.995-6.272,1.392
		c-1.788,0.396-3.642,0.793-5.567,1.19c-1.919,0.396-4.07,0.865-6.459,1.391c-2.388,0.535-5.309,1.199-8.757,1.992
		c0,2.783,0.064,5.738,0.202,8.854c0.13,3.115,0.332,7.122,0.599,12.027c0.131,3.188,0.293,8.093,0.494,14.721
		c0.202,6.637,0.43,14.326,0.696,23.074c-1.328,0.664-2.784,1.295-4.379,1.887c-1.586,0.598-2.913,0.897-3.974,0.897
		c-0.139-0.793-0.202-3.415-0.202-7.858s0-9.646,0-15.611s-0.032-12.229-0.099-18.792c-0.063-6.564-0.233-12.432-0.492-17.604
		c-5.438,1.725-10.053,2.979-13.823,3.779c-3.78,0.793-6.07,0.729-6.863-0.202c-0.268,0-0.202-0.631,0.194-1.894
		c0.396-1.254,0.931-2.412,1.594-3.48c2.121-0.396,3.941-0.761,5.472-1.092c1.521-0.324,2.913-0.664,4.177-0.996
		c1.255-0.324,2.518-0.729,3.778-1.189c1.255-0.461,2.816-1.093,4.67-1.895c-0.396-6.887-0.761-13.055-1.092-18.492
		c-0.332-5.439-0.729-10.473-1.189-15.119c-0.471-4.637-1.027-9.178-1.691-13.621c-0.663-4.443-1.529-9.25-2.59-14.422
		c0.664-1.06,2.022-2.153,4.079-3.286c2.056-1.125,4.338-1.222,6.862-0.3c-0.138,5.844-0.072,11.177,0.194,16.017
		s0.599,9.712,0.995,14.617c0.404,4.913,0.802,10.011,1.198,15.321c0.396,5.301,0.663,11.201,0.793,17.699
		c3.051-0.396,6.692-1.262,10.941-2.59c4.24-1.318,9.274-2.582,15.118-3.779c0-3.311-0.073-7.754-0.202-13.322
		c-0.138-5.567-0.396-11.273-0.794-17.108c-0.396-5.835-0.833-11.298-1.295-16.405c-0.469-5.107-0.963-8.919-1.489-11.436
		c-0.137-0.931-0.267-1.562-0.403-1.894c-0.129-0.332-0.228-0.559-0.291-0.696c-0.073-0.129-0.105-0.332-0.105-0.599
		C525.504,7.819,525.568,7.358,525.706,6.687z"/>
	<path fill="#781D7E" d="M571.203,90.824c0.396-0.129,1.521-0.494,3.383-1.092c1.854-0.6,3.375-0.697,4.572-0.301
		c3.845-0.129,6.791,0.867,8.854,2.986c2.048,2.121,2.219,6.232,0.493,12.326c-2.517,6.767-5.867,12.399-10.043,16.907
		c-4.177,4.509-9.121,8.82-14.819,12.934c1.327,3.448,3.312,5.366,5.966,5.764c2.654,0.403,5.438-0.025,8.353-1.287
		c2.922-1.264,5.771-2.955,8.555-5.074c2.784-2.121,5.042-3.982,6.767-5.568c2.784-2.389,5.002-4.411,6.661-6.07
		c1.658-1.649,3.415-3.674,5.269-6.062c0.396-0.267,0.631-0.234,0.696,0.098c0.063,0.332,0.031,0.834-0.099,1.489
		c-0.129,0.672-0.331,1.595-0.599,2.784c-0.396,0.931-0.793,1.764-1.189,2.491c-0.396,0.729-0.963,1.521-1.69,2.39
		c-0.729,0.856-1.691,1.885-2.882,3.073c-1.197,1.199-2.654,2.785-4.378,4.775c-1.991,1.861-3.909,3.684-5.771,5.471
		c-1.854,1.789-3.812,3.353-5.868,4.68c-2.056,1.326-4.306,2.25-6.758,2.783c-2.46,0.525-5.275,0.525-8.457,0
		c-2.655-0.932-4.774-1.926-6.361-2.985c-1.595-1.062-2.824-2.153-3.683-3.278c-0.866-1.125-1.489-2.16-1.886-3.082
		c-0.404-0.933-0.672-1.726-0.802-2.389c-0.663-2.654-0.923-6.23-0.793-10.74c0.13-4.508,1.456-10.343,3.981-17.505
		c1.716-3.715,3.577-6.863,5.567-9.445C566.226,94.305,568.549,92.281,571.203,90.824z M562.446,126.029
		c1.724-0.922,3.747-2.217,6.068-3.877c2.323-1.658,4.509-3.584,6.564-5.771c2.055-2.187,3.844-4.605,5.373-7.26
		c1.521-2.654,2.348-5.438,2.484-8.352c0.396-1.991,0.331-3.383-0.201-4.177c-0.269-0.396-0.526-0.599-0.794-0.599
		c-2.259-1.061-4.509-0.729-6.767,0.995c-2.25,1.724-4.306,4.177-6.159,7.356c-1.86,3.182-3.424,6.734-4.678,10.643
		C563.077,118.9,562.446,122.582,562.446,126.029z"/>
	<path fill="#781D7E" d="M614.162,59.601c1.327-0.267,2.12,0.526,2.388,2.38c0.268,1.861,0,3.253-0.793,4.184
		c-1.465,1.189-2.388,2.218-2.784,3.075c-0.396,0.866-1.327,1.433-2.783,1.692c-0.803-0.131-1.497-0.162-2.089-0.098
		c-0.6,0.072-1.093-1.027-1.497-3.277c0.533-1.457,1.359-2.922,2.492-4.379C610.221,61.721,611.904,60.523,614.162,59.601z
		 M614.761,85.45c0.664,6.37,1.125,13.362,1.394,20.986c0.267,7.632,0.729,15.612,1.392,23.972c0.526,4.24,1.062,7.56,1.595,9.939
		c0.526,2.387,0.924,4.645,1.189,6.766c-2.12,0.396-3.779,0.363-4.969-0.098c-1.198-0.47-2.323-1.027-3.385-1.691
		c-0.267-2.12-0.565-5.633-0.897-10.545c-0.331-4.904-0.663-10.238-0.995-16.01c-0.332-5.771-0.663-11.371-0.987-16.81
		c-0.34-5.431-0.631-9.744-0.897-12.926c0.525-0.267,0.963-0.663,1.295-1.197c0.324-0.525,0.696-0.996,1.093-1.393
		c0.397-0.397,0.923-0.729,1.586-0.995C612.835,85.191,613.701,85.191,614.761,85.45z"/>
	<path fill="#781D7E" d="M647.301,85.92c5.687-0.543,11.273-1.116,16.765-1.719c5.487-0.609,11.213-1.251,17.16-1.938
		c1.331,0.104,2.206,0.776,2.645,2.021c0.429,1.251-0.086,2.025-1.535,2.329c-4.889,0.661-10.51,1.533-16.845,2.618
		c-6.335,1.095-12.341,2.447-17.999,4.049c0.364,4.104,0.608,8.308,0.72,12.611c0.111,4.313,0.317,8.548,0.627,12.718
		c0.301,4.17,0.801,8.205,1.5,12.099c0.699,3.899,1.746,7.483,3.158,10.769c1.919,2.201,3.805,3.479,5.677,3.83
		c1.862,0.348,3.616,0.205,5.26-0.435c1.636-0.636,3.142-1.604,4.499-2.901c1.36-1.291,2.551-2.552,3.588-3.769
		c0.897-0.953,1.666-0.974,2.28-0.058c0.623,0.905,0.092,2.312-1.583,4.217c-0.769,0.943-1.738,1.964-2.9,3.054
		c-1.169,1.092-2.57,2.026-4.211,2.797s-3.48,1.287-5.53,1.535c-2.05,0.254-4.273,0.076-6.678-0.526
		c-3.069-0.714-5.391-3.115-6.952-7.18c-1.562-4.072-2.776-8.852-3.646-14.335c-0.87-5.481-1.519-11.205-1.931-17.162
		c-0.42-5.955-0.891-11.319-1.408-16.074c-5.82,0.677-10.088,1.247-12.787,1.721c-2.709,0.466-4.659,0.783-5.847,0.943
		c-1.193,0.161-1.988,0.116-2.393-0.141c-0.41-0.249-1.154-0.829-2.237-1.731c0.111-0.668,0.137-1.3,0.057-1.889
		c-0.087-0.596-0.101-1.098-0.038-1.496c0.054-0.398,0.303-0.801,0.762-1.21c0.451-0.407,1.342-0.763,2.661-1.064
		c1.97-0.576,4.851-0.95,8.625-1.12c3.777-0.161,7.442-0.555,11.016-1.174c-0.248-4.235-0.462-7.549-0.652-9.933
		c-0.199-2.383-0.382-4.467-0.565-6.252c-0.176-1.784-0.316-3.538-0.426-5.259c-0.118-1.722-0.208-3.979-0.278-6.762
		c-0.019-0.662,0.334-1.166,1.054-1.516c0.72-0.352,1.548-0.575,2.476-0.663c0.921-0.089,1.791,0.019,2.593,0.33
		c0.802,0.312,1.349,0.799,1.633,1.447c0.427,1.188,0.729,2.937,0.928,5.256c0.189,2.318,0.35,4.767,0.489,7.345
		c0.131,2.588,0.229,5.201,0.298,7.855C647.39,81.812,647.383,84.063,647.301,85.92z"/>
	<path fill="#781D7E" d="M681.199,80.084c0-1.197,0.332-1.893,0.995-2.088c0.664-0.202,1.358-0.17,2.088,0.098
		c0.729,0.268,1.457,0.695,2.186,1.295c0.729,0.599,1.222,1.027,1.489,1.295c0.267,3.447,0.138,8.15-0.396,14.123
		c-0.525,5.965-0.793,13.395-0.793,22.272c0.525-2.12,1.327-4.638,2.388-7.56c1.061-2.913,2.291-5.867,3.683-8.846
		c1.393-2.986,2.914-5.771,4.573-8.36c1.658-2.581,3.276-4.638,4.872-6.167c1.594-1.521,3.115-2.282,4.572-2.282
		s2.783,1.125,3.981,3.383c0.259,0.663,0.493,2.023,0.695,4.071c0.193,2.063,0.323,4.548,0.396,7.462
		c0.064,2.921,0.161,6.167,0.299,9.744c0.131,3.585,0.324,7.228,0.592,10.942c1.197-2.914,2.558-6.135,4.079-9.647
		c1.521-3.512,3.147-6.693,4.871-9.55c1.725-2.85,3.586-5.066,5.576-6.661c1.983-1.595,4.104-1.918,6.361-0.995
		c1.061,0.396,1.789,1.627,2.186,3.682c0.396,2.057,0.729,4.477,0.995,7.26c0.269,2.785,0.566,5.738,0.898,8.846
		c0.324,3.125,0.955,5.941,1.886,8.458c0.931,2.517,2.258,4.539,3.982,6.07c1.724,1.521,4.038,2.088,6.96,1.682
		c1.594,0,2.752,0.041,3.479,0.105c0.729,0.064,1.262,0.162,1.594,0.301c0.324,0.129,0.461,0.332,0.396,0.59
		c-0.072,0.269-0.105,0.664-0.105,1.197c-4.903,2.519-8.918,3.353-12.025,2.485c-3.124-0.858-5.568-2.72-7.364-5.567
		c-1.789-2.85-3.052-6.297-3.78-10.344c-0.728-4.047-1.222-8.053-1.488-12.035c-0.268-1.725-0.825-2.452-1.691-2.186
		c-0.865,0.268-1.926,1.263-3.181,2.979c-1.264,1.725-2.622,3.885-4.079,6.467c-1.456,2.589-2.85,5.341-4.176,8.255
		c-1.327,2.922-2.484,5.738-3.48,8.449c-0.995,2.719-1.756,4.944-2.29,6.668c-0.664,1.189-1.724,1.521-3.181,0.996
		c-1.457-0.535-2.389-1.529-2.784-2.986c-0.534-2.12-0.825-4.742-0.898-7.858c-0.063-3.114-0.063-6.264,0-9.444
		c0.073-3.181,0.17-6.265,0.3-9.25c0.13-2.986,0.13-5.535,0-7.656c-0.13-2.12-0.396-3.577-0.793-4.379
		c-0.396-0.793-1.125-0.59-2.186,0.6c-2.258,3.447-4.346,7.356-6.265,11.735c-1.927,4.378-3.617,8.919-5.074,13.621
		c-1.465,4.711-2.688,9.422-3.683,14.123c-0.995,4.711-1.628,8.983-1.887,12.828c-2.258,0.533-3.853,0.233-4.773-0.892
		c-0.932-1.125-1.726-2.29-2.389-3.479c0.268-1.724,0.493-5.074,0.696-10.043c0.202-4.979,0.396-10.644,0.599-17.013
		c0.194-6.361,0.396-12.86,0.592-19.488C680.899,90.76,681.062,84.989,681.199,80.084z"/>
	<path fill="#781D7E" d="M796.164,88.639c-0.138,0.793-0.438,2.453-0.898,4.97c-0.469,2.517-0.963,5.472-1.488,8.854
		c-0.534,3.375-0.995,6.928-1.393,10.643c-0.396,3.707-0.632,7.228-0.695,10.537c-0.073,3.318,0.13,6.135,0.591,8.457
		c0.47,2.315,1.229,3.748,2.291,4.273c3.051,1.457,6.167,0.963,9.348-1.488c3.181-2.453,6.896-6.199,11.136-11.242
		c0.405,0,0.43,0.534,0.105,1.594c-0.332,1.062-0.866,2.22-1.595,3.48c-0.729,1.264-1.456,2.518-2.186,3.779
		c-0.729,1.264-1.295,2.089-1.69,2.484c-1.062,1.328-2.591,2.816-4.573,4.477c-1.991,1.659-4.111,2.979-6.369,3.975
		c-2.258,0.994-4.411,1.432-6.467,1.295c-2.057-0.131-3.747-1.319-5.066-3.578c-0.664-1.594-1.067-3.545-1.197-5.866
		c-0.13-2.323-0.13-4.679,0-7.066c0.13-2.387,0.331-4.571,0.6-6.562c0.267-1.983,0.461-3.448,0.599-4.371
		c-2.784,5.172-5.973,10.076-9.55,14.714c-3.577,4.646-7.098,8.287-10.538,10.942c-3.455,2.653-6.636,4.078-9.55,4.272
		c-2.922,0.201-5.172-1.489-6.767-5.065c-0.923-3.448-0.923-7.326,0-11.64c0.932-4.306,2.322-8.19,4.177-11.639
		c2.792-4.774,5.706-9.145,8.757-13.127c3.052-3.974,6.297-7.357,9.744-10.141c3.448-2.784,7.058-4.808,10.838-6.07
		C788.104,88.275,792.053,87.976,796.164,88.639z M758.765,139.158c1.328,0.267,3.448-0.729,6.37-2.987
		c2.913-2.25,5.965-5.397,9.146-9.444c3.188-4.047,6.068-8.748,8.65-14.123c2.591-5.366,4.281-11.039,5.074-17.004
		c-0.534,0-1.295,0-2.29,0c-0.987,0-2.153,0.396-3.479,1.189c-5.034,3.318-9.349,7.195-12.926,11.639
		c-3.576,4.444-6.368,8.748-8.353,12.923c-1.99,4.187-3.181,7.933-3.585,11.242C756.977,135.912,757.438,138.098,758.765,139.158z"
		/>
	<path fill="#781D7E" d="M821.019,86.445c0,3.715-0.031,7.43-0.097,11.145c-0.073,3.707-0.138,7.293-0.203,10.74
		c-0.063,3.447-0.129,6.693-0.192,9.744c-0.073,3.051-0.17,5.771-0.301,8.158c0-0.534,0.301-1.83,0.892-3.885
		c0.599-2.057,1.424-4.402,2.492-7.058c1.061-2.655,2.218-5.472,3.479-8.458c1.254-2.979,2.614-5.634,4.07-7.956
		c1.466-2.314,2.954-4.144,4.476-5.471c1.53-1.319,2.954-1.716,4.281-1.189c2.914,1.326,4.97,3.253,6.168,5.77
		c1.189,2.518,2.047,5.406,2.581,8.652c0.526,3.246,1.061,6.863,1.595,10.836c0.526,3.981,1.716,8.158,3.577,12.528
		c0.793,1.991,1.959,3.456,3.48,4.379c1.521,0.931,2.985,1.595,4.378,1.99s2.518,0.632,3.383,0.696
		c0.857,0.064,1.158,0.3,0.891,0.695c-3.311,2.518-6.167,3.383-8.555,2.582c-2.379-0.793-4.402-2.55-6.062-5.27
		c-1.658-2.711-3.019-5.965-4.078-9.744c-1.061-3.779-2.023-7.422-2.882-10.941c-0.865-3.514-1.627-6.491-2.291-8.951
		c-0.663-2.453-1.392-3.675-2.186-3.675c-1.197,0.13-2.484,1.263-3.876,3.375c-1.393,2.128-2.825,4.774-4.281,7.963
		c-1.457,3.181-2.849,6.66-4.177,10.439c-1.327,3.78-2.557,7.325-3.682,10.643c-1.125,3.312-2.023,6.16-2.681,8.547
		c-0.672,2.389-1.067,3.854-1.196,4.379c-1.991,0-3.214,0.064-3.676,0.203c-0.47,0.129-1.229-0.535-2.29-1.991
		c0.664-11.671,0.898-22.71,0.696-33.117c-0.203-10.408-0.502-19.457-0.897-27.153c0-1.189,0.299-1.788,0.897-1.788
		s1.254,0.267,1.99,0.793c0.729,0.533,1.489,1.068,2.282,1.594C819.829,86.188,820.484,86.445,821.019,86.445z"/>
</g>
</svg>
